<svg xmlns="http://www.w3.org/2000/svg" viewBox="0 0 512 512" width="512" height="512"><path d="M329.6 230.4c-5.9-60-56.6-107-118.2-107-51 0-96.1 32.8-112.3 80.5-38.4 5.6-68.1 38.6-68.1 78.7 0 43.9 35.7 79.7 79.9 79.7h204.3c36.9 0 67-29.9 67-66.8 0-31.9-22.7-58.6-52.6-65.1zm-14.4 102H110.9c-27.5 0-50-22.3-50-49.8s22.5-49.8 50-49.8c13.3 0 25.8 5.3 35.2 14.6 14.1 14.1 35.4-7.2 21.3-21.3-10.4-10.2-23-17.2-36.7-20.7 14.1-31.2 45.7-52.1 80.9-52.1 49 0 88.9 39.8 88.9 88.7 0 9.6-1.6 18.9-4.5 27.9-6.3 19.4 22.7 27.5 28.3 9.4 2-5.9 3.5-11.9 4.5-18 13.7 5.3 23.6 18.6 23.6 34.2-.1 20.3-16.7 36.9-37.2 36.9zM481 295.5c0 31.1-9 60.9-26.2 86.5-2.9 4.3-7.6 6.6-12.5 6.6-11.5 0-19.1-13.3-12.3-23.2 13.7-20.7 21.1-44.9 21.1-69.9s-7.4-49.2-21.1-69.7c-11-16.1 13.7-33.3 24.8-16.6 17.2 25.3 26.2 55.2 26.2 86.3zm-50 0c0 22.3-6.4 43.8-18.9 62.3-2.9 4.3-7.6 6.4-12.5 6.4-12.1 0-19.1-13.4-12.3-23.2 9.2-13.5 13.9-29.1 13.9-45.5 0-16.2-4.7-32-13.9-45.5-11.1-16.2 13.4-33.2 24.8-16.6 12.5 18.3 18.9 39.8 18.9 62.1z"/></svg>