<svg xmlns="http://www.w3.org/2000/svg" version="1.1" xmlns:xlink="http://www.w3.org/1999/xlink" xmlns:svgjs="http://svgjs.com/svgjs" width="1000" height="1000"><rect width="1000" height="1000" rx="250" ry="250" fill="#ffffff"></rect><g transform="matrix(1.834862385321101,0,0,1.834862385321101,100,303.11345340425044)"><svg xmlns="http://www.w3.org/2000/svg" version="1.1" xmlns:xlink="http://www.w3.org/1999/xlink" xmlns:svgjs="http://svgjs.com/svgjs" width="436" height="214.667"><svg version="1.0" xmlns="http://www.w3.org/2000/svg" width="436" height="214.667" viewBox="0 0 327 161">
  <path d="M0 21.8v21.9l58.9 58.6 58.9 58.7h80.9l4.4-4.8c2.4-2.6 20-21.8 39-42.7C261 92.6 287.9 63 301.8 47.8L327 20V2H170v96h2.3c1.8 0 6.5-4.9 20.3-21 9.8-11.5 18-21.3 18.1-21.7.2-.5-2.7-.8-6.4-.8h-6.8l-.3-11.3-.3-11.2h39.2c37.2 0 39.1.1 37.7 1.7-2 2.4-81.9 91.6-87.2 97.3-2.2 2.5-7.7 8.6-12.1 13.5-4.4 5-9.3 10.4-11 12.2l-3 3.2-23.9-23.5c-13.2-12.8-23.8-23.5-23.5-23.7.2-.2 2.4-.9 4.9-1.6 10.2-3 24.3-12 30.1-19.3 8.1-10.3 11.3-20.1 11.2-34.3 0-24.8-12.8-42.8-38-53.3L112.5.5 56.3.2 0-.1v21.9zm113 10.7c16.6 8.4 22 28.4 11.4 42.2-1.6 2.1-5.2 4.7-8.8 6.4-5.8 2.7-6.8 2.9-19.1 2.9H83.4L57.5 57.4c-14.3-14.7-26.1-27-26.3-27.3-.1-.3 17.2-.5 38.4-.3l38.6.2 4.8 2.5zm199.7 46.8-13.8 13.2.7 19.7.7 19.8h-9.9c-5.4 0-15 .3-21.1.7l-11.3.6-11 13.3c-6 7.3-11 13.6-11 13.9 0 .3 20.5.5 45.5.5H327v-47.5c0-26.1-.1-47.5-.2-47.5-.2.1-6.5 6-14.1 13.3zM0 122.8V161h38c20.9 0 38-.2 38-.4 0-.3-60.7-61-75.6-75.5-.2-.2-.4 16.7-.4 37.7z"></path>
</svg></svg></g></svg>